<mxfile host="app.diagrams.net" modified="2021-11-25T10:49:07.345Z" agent="5.0 (Windows NT 10.0; Win64; x64) AppleWebKit/537.36 (KHTML, like Gecko) Chrome/96.0.4664.45 Safari/537.36" etag="2KXlO2_KQyZXfbDALGvL" version="15.8.6" type="github">
  <diagram name="Page-1" id="8ce9d11a-91a2-4d17-14d8-a56ed91bf033">
    <mxGraphModel dx="1323" dy="3140" grid="1" gridSize="10" guides="1" tooltips="1" connect="1" arrows="1" fold="1" page="1" pageScale="1" pageWidth="1169" pageHeight="827" background="none" math="0" shadow="0">
      <root>
        <mxCell id="0" />
        <mxCell id="1" parent="0" />
        <mxCell id="Cmh_lZgweEWPDK4rOLSs-5" value="" style="rounded=0;orthogonalLoop=1;jettySize=auto;html=1;fontSize=20;" edge="1" parent="1" source="Cmh_lZgweEWPDK4rOLSs-3" target="Cmh_lZgweEWPDK4rOLSs-4">
          <mxGeometry relative="1" as="geometry" />
        </mxCell>
        <mxCell id="Cmh_lZgweEWPDK4rOLSs-16" style="edgeStyle=none;rounded=0;orthogonalLoop=1;jettySize=auto;html=1;fontSize=20;" edge="1" parent="1" source="Cmh_lZgweEWPDK4rOLSs-3" target="Cmh_lZgweEWPDK4rOLSs-8">
          <mxGeometry relative="1" as="geometry" />
        </mxCell>
        <mxCell id="Cmh_lZgweEWPDK4rOLSs-17" style="edgeStyle=none;rounded=0;orthogonalLoop=1;jettySize=auto;html=1;fontSize=20;" edge="1" parent="1" source="Cmh_lZgweEWPDK4rOLSs-3" target="Cmh_lZgweEWPDK4rOLSs-9">
          <mxGeometry relative="1" as="geometry" />
        </mxCell>
        <mxCell id="Cmh_lZgweEWPDK4rOLSs-3" value="لجان المنطقه" style="ellipse;whiteSpace=wrap;html=1;aspect=fixed;fontSize=20;" vertex="1" parent="1">
          <mxGeometry x="537.5" y="-1920" width="90" height="90" as="geometry" />
        </mxCell>
        <mxCell id="Cmh_lZgweEWPDK4rOLSs-4" value="&lt;span lang=&quot;AR-EG&quot; dir=&quot;RTL&quot; style=&quot;font-size: 14.0pt ; font-family: &amp;#34;mudir mt&amp;#34;&quot;&gt;إنهاء النشاط واسترداد&lt;br/&gt;الرصيد الدائن&lt;/span&gt;" style="ellipse;whiteSpace=wrap;html=1;aspect=fixed;fontSize=20;fillColor=#ffe6cc;strokeColor=#d79b00;" vertex="1" parent="1">
          <mxGeometry x="770" y="-2120" width="190" height="190" as="geometry" />
        </mxCell>
        <mxCell id="Cmh_lZgweEWPDK4rOLSs-6" value="&lt;span lang=&quot;AR-EG&quot; dir=&quot;RTL&quot; style=&quot;font-size: 14.0pt ; font-family: &amp;#34;mudir mt&amp;#34;&quot;&gt;بحث اعتراضات أصحاب&lt;br/&gt;الأعمال&lt;br&gt;&lt;/span&gt;" style="ellipse;whiteSpace=wrap;html=1;aspect=fixed;fontSize=20;fillColor=#ffe6cc;strokeColor=#d79b00;" vertex="1" parent="1">
          <mxGeometry x="710" y="-1770" width="165" height="165" as="geometry" />
        </mxCell>
        <mxCell id="Cmh_lZgweEWPDK4rOLSs-7" value="" style="rounded=0;orthogonalLoop=1;jettySize=auto;html=1;fontSize=20;" edge="1" parent="1" source="Cmh_lZgweEWPDK4rOLSs-3" target="Cmh_lZgweEWPDK4rOLSs-6">
          <mxGeometry relative="1" as="geometry" />
        </mxCell>
        <mxCell id="Cmh_lZgweEWPDK4rOLSs-8" value="&lt;span lang=&quot;AR-EG&quot; dir=&quot;RTL&quot; style=&quot;font-size: 14.0pt ; font-family: &amp;#34;mudir mt&amp;#34;&quot;&gt;&lt;span lang=&quot;AR-EG&quot; dir=&quot;RTL&quot; style=&quot;font-size: 14.0pt ; font-family: &amp;#34;mudir mt&amp;#34;&quot;&gt;التحكيم الطبي للابن&lt;br/&gt;أو الاخ العاجز&lt;/span&gt;&lt;br&gt;&lt;/span&gt;" style="ellipse;whiteSpace=wrap;html=1;aspect=fixed;fontSize=20;fillColor=#ffe6cc;strokeColor=#d79b00;" vertex="1" parent="1">
          <mxGeometry x="290" y="-1780" width="165" height="165" as="geometry" />
        </mxCell>
        <mxCell id="Cmh_lZgweEWPDK4rOLSs-9" value="&lt;span lang=&quot;AR-EG&quot; dir=&quot;RTL&quot; style=&quot;font-size: 14.0pt ; font-family: &amp;#34;mudir mt&amp;#34;&quot;&gt;&lt;span lang=&quot;AR-EG&quot; dir=&quot;RTL&quot; style=&quot;font-size: 14.0pt ; font-family: &amp;#34;mudir mt&amp;#34;&quot;&gt;عدم وجود عمل اخر&lt;br/&gt;للمؤمن عليه لدي صاحب العمل&lt;/span&gt;&lt;br&gt;&lt;/span&gt;" style="ellipse;whiteSpace=wrap;html=1;aspect=fixed;fontSize=20;fillColor=#ffe6cc;strokeColor=#d79b00;" vertex="1" parent="1">
          <mxGeometry x="200" y="-2100" width="185" height="185" as="geometry" />
        </mxCell>
        <mxCell id="Cmh_lZgweEWPDK4rOLSs-18" style="edgeStyle=none;rounded=0;orthogonalLoop=1;jettySize=auto;html=1;exitX=0.5;exitY=0;exitDx=0;exitDy=0;fontSize=20;" edge="1" parent="1" source="Cmh_lZgweEWPDK4rOLSs-3">
          <mxGeometry relative="1" as="geometry">
            <mxPoint x="580" y="-2080" as="targetPoint" />
          </mxGeometry>
        </mxCell>
        <mxCell id="Cmh_lZgweEWPDK4rOLSs-10" value="&lt;span lang=&quot;AR-EG&quot; dir=&quot;RTL&quot; style=&quot;font-size: 14.0pt ; font-family: &amp;#34;mudir mt&amp;#34;&quot;&gt;&lt;span lang=&quot;AR-EG&quot; dir=&quot;RTL&quot; style=&quot;font-size: 14.0pt ; font-family: &amp;#34;mudir mt&amp;#34;&quot;&gt;فحض المنازعات&lt;/span&gt;&lt;br&gt;&lt;/span&gt;" style="ellipse;whiteSpace=wrap;html=1;aspect=fixed;fontSize=20;fillColor=#ffe6cc;strokeColor=#d79b00;" vertex="1" parent="1">
          <mxGeometry x="500" y="-2250" width="165" height="165" as="geometry" />
        </mxCell>
        <mxCell id="Cmh_lZgweEWPDK4rOLSs-19" value="" style="shape=flexArrow;endArrow=classic;html=1;rounded=0;fontSize=20;" edge="1" parent="1">
          <mxGeometry width="50" height="50" relative="1" as="geometry">
            <mxPoint x="1130" y="-1440" as="sourcePoint" />
            <mxPoint x="1030" y="-1440" as="targetPoint" />
          </mxGeometry>
        </mxCell>
        <mxCell id="Cmh_lZgweEWPDK4rOLSs-20" value="&lt;span lang=&quot;AR-EG&quot; dir=&quot;RTL&quot; style=&quot;font-size: 14.0pt ; font-family: &amp;#34;mudir mt&amp;#34;&quot;&gt;استلام وتاكد من المستندات&amp;nbsp;&lt;/span&gt;" style="shape=document;whiteSpace=wrap;html=1;boundedLbl=1;fontSize=20;" vertex="1" parent="1">
          <mxGeometry x="900" y="-1470" width="120" height="80" as="geometry" />
        </mxCell>
        <mxCell id="Cmh_lZgweEWPDK4rOLSs-25" style="edgeStyle=none;rounded=0;orthogonalLoop=1;jettySize=auto;html=1;exitX=0.5;exitY=1;exitDx=0;exitDy=0;exitPerimeter=0;entryX=0;entryY=0.5;entryDx=0;entryDy=0;fontSize=20;" edge="1" parent="1" source="Cmh_lZgweEWPDK4rOLSs-21" target="Cmh_lZgweEWPDK4rOLSs-23">
          <mxGeometry relative="1" as="geometry" />
        </mxCell>
        <mxCell id="Cmh_lZgweEWPDK4rOLSs-21" value="Q" style="shape=cylinder3;whiteSpace=wrap;html=1;boundedLbl=1;backgroundOutline=1;size=15;fontSize=20;direction=south;" vertex="1" parent="1">
          <mxGeometry x="726.25" y="-1460" width="132.5" height="60" as="geometry" />
        </mxCell>
        <mxCell id="Cmh_lZgweEWPDK4rOLSs-22" value="" style="endArrow=classic;html=1;rounded=0;fontSize=20;exitX=0;exitY=0.5;exitDx=0;exitDy=0;" edge="1" parent="1" source="Cmh_lZgweEWPDK4rOLSs-20" target="Cmh_lZgweEWPDK4rOLSs-21">
          <mxGeometry width="50" height="50" relative="1" as="geometry">
            <mxPoint x="530" y="-1330" as="sourcePoint" />
            <mxPoint x="580" y="-1380" as="targetPoint" />
          </mxGeometry>
        </mxCell>
        <mxCell id="Cmh_lZgweEWPDK4rOLSs-24" style="edgeStyle=none;rounded=0;orthogonalLoop=1;jettySize=auto;html=1;exitX=1;exitY=0.5;exitDx=0;exitDy=0;fontSize=20;" edge="1" parent="1" source="Cmh_lZgweEWPDK4rOLSs-23">
          <mxGeometry relative="1" as="geometry">
            <mxPoint x="500" y="-1430" as="targetPoint" />
          </mxGeometry>
        </mxCell>
        <mxCell id="Cmh_lZgweEWPDK4rOLSs-23" value="&lt;span lang=&quot;AR-EG&quot; dir=&quot;RTL&quot; style=&quot;font-size: 14.0pt ; font-family: &amp;#34;mudir mt&amp;#34;&quot;&gt;تحضير محضر عرض&amp;nbsp;&lt;/span&gt;" style="shape=step;perimeter=stepPerimeter;whiteSpace=wrap;html=1;fixedSize=1;fontSize=20;direction=west;" vertex="1" parent="1">
          <mxGeometry x="570" y="-1470" width="120" height="80" as="geometry" />
        </mxCell>
      </root>
    </mxGraphModel>
  </diagram>
</mxfile>
